<svg xmlns="http://www.w3.org/2000/svg" width="184" height="133" fill="none"><path fill="#FE9F43" d="M9.343 4.922c0 2.718-2.092 4.922-4.672 4.922C2.091 9.844 0 7.64 0 4.922 0 2.204 2.091 0 4.671 0s4.672 2.204 4.672 4.922ZM9.343 87.027c0 2.718-2.092 4.921-4.672 4.921-2.58 0-4.671-2.203-4.671-4.921 0-2.719 2.091-4.922 4.671-4.922s4.672 2.203 4.672 4.922ZM79.211 4.922c0 2.718-2.091 4.922-4.67 4.922-2.58 0-4.672-2.204-4.672-4.922C69.869 2.204 71.96 0 74.54 0s4.671 2.204 4.671 4.922ZM79.211 87.026c0 2.718-2.091 4.922-4.67 4.922-2.58 0-4.672-2.204-4.672-4.922 0-2.718 2.091-4.922 4.671-4.922s4.671 2.204 4.671 4.922ZM149.069 4.922c0 2.718-2.092 4.922-4.672 4.922-2.58 0-4.671-2.204-4.671-4.922 0-2.718 2.091-4.922 4.671-4.922s4.672 2.204 4.672 4.922ZM149.069 87.027c0 2.718-2.092 4.922-4.672 4.922-2.58 0-4.671-2.204-4.671-4.922 0-2.718 2.091-4.922 4.671-4.922s4.672 2.204 4.672 4.922ZM9.343 45.974c0 2.718-2.092 4.922-4.672 4.922-2.58 0-4.671-2.204-4.671-4.922 0-2.718 2.091-4.922 4.671-4.922s4.672 2.204 4.672 4.922ZM9.343 128.078c0 2.718-2.092 4.922-4.672 4.922C2.091 133 0 130.796 0 128.078c0-2.718 2.091-4.922 4.671-4.922s4.672 2.204 4.672 4.922ZM79.211 45.973c0 2.719-2.091 4.922-4.67 4.922-2.58 0-4.672-2.203-4.672-4.922 0-2.718 2.091-4.921 4.671-4.921s4.671 2.203 4.671 4.921ZM79.211 128.078c0 2.718-2.091 4.922-4.67 4.922-2.58 0-4.672-2.204-4.672-4.922 0-2.718 2.091-4.922 4.671-4.922s4.671 2.204 4.671 4.922ZM149.069 45.974c0 2.718-2.092 4.922-4.672 4.922-2.58 0-4.671-2.204-4.671-4.922 0-2.718 2.091-4.922 4.671-4.922s4.672 2.203 4.672 4.922ZM149.069 128.078c0 2.718-2.092 4.922-4.672 4.922-2.58 0-4.671-2.204-4.671-4.922 0-2.718 2.091-4.922 4.671-4.922s4.672 2.204 4.672 4.922ZM44.274 4.922c0 2.718-2.092 4.922-4.671 4.922-2.58 0-4.672-2.204-4.672-4.922C34.931 2.204 37.023 0 39.603 0c2.58 0 4.67 2.204 4.67 4.922ZM44.274 87.027c0 2.718-2.092 4.921-4.671 4.921-2.58 0-4.672-2.203-4.672-4.921 0-2.719 2.092-4.922 4.672-4.922 2.58 0 4.67 2.203 4.67 4.922ZM114.14 4.922c0 2.718-2.091 4.922-4.671 4.922s-4.672-2.204-4.672-4.922c0-2.718 2.092-4.922 4.672-4.922 2.58 0 4.671 2.204 4.671 4.922ZM114.14 87.026c0 2.718-2.091 4.922-4.671 4.922s-4.672-2.204-4.672-4.922c0-2.718 2.092-4.922 4.672-4.922 2.58 0 4.671 2.204 4.671 4.922ZM184 4.922c0 2.718-2.091 4.922-4.671 4.922s-4.672-2.204-4.672-4.922c0-2.718 2.092-4.922 4.672-4.922C181.909 0 184 2.204 184 4.922ZM184 87.027c0 2.718-2.091 4.922-4.671 4.922s-4.672-2.204-4.672-4.922c0-2.718 2.092-4.922 4.672-4.922 2.58 0 4.671 2.204 4.671 4.922ZM44.274 45.974c0 2.718-2.092 4.922-4.671 4.922-2.58 0-4.672-2.204-4.672-4.922 0-2.718 2.092-4.922 4.672-4.922 2.58 0 4.67 2.204 4.67 4.922ZM44.274 128.078c0 2.718-2.092 4.922-4.671 4.922-2.58 0-4.672-2.204-4.672-4.922 0-2.718 2.092-4.922 4.672-4.922 2.58 0 4.67 2.204 4.67 4.922ZM114.14 45.973c0 2.719-2.091 4.922-4.671 4.922s-4.672-2.203-4.672-4.922c0-2.718 2.092-4.921 4.672-4.921 2.58 0 4.671 2.203 4.671 4.921ZM114.14 128.078c0 2.718-2.091 4.922-4.671 4.922s-4.672-2.204-4.672-4.922c0-2.718 2.092-4.922 4.672-4.922 2.58 0 4.671 2.204 4.671 4.922ZM184 45.974c0 2.718-2.091 4.922-4.671 4.922s-4.672-2.204-4.672-4.922c0-2.718 2.092-4.922 4.672-4.922 2.58 0 4.671 2.203 4.671 4.922ZM184 128.078c0 2.718-2.091 4.922-4.671 4.922s-4.672-2.204-4.672-4.922c0-2.718 2.092-4.922 4.672-4.922 2.58 0 4.671 2.204 4.671 4.922Z"/></svg>